<?xml version="1.0" encoding="utf-8"?>
<!-- Generator: Adobe Illustrator 27.5.0, SVG Export Plug-In . SVG Version: 6.00 Build 0)  -->
<svg version="1.1" id="Layer_1" xmlns="http://www.w3.org/2000/svg" xmlns:xlink="http://www.w3.org/1999/xlink" x="0px" y="0px"
	 viewBox="0 0 2845.735 2000" style="enable-background:new 0 0 2845.735 2000;" xml:space="preserve">
<rect x="-0.001" y="0" style="fill:#FFFFFF;" width="2845.735" height="2000"/>
<g>
	<path style="fill:#EAFCFC;" d="M863.601,170.834c383.464-25.015,785.511,105.288,726.413,294.175
		c-59.098,188.888,315.951-67.092,465.623,1.011c106.556,48.484,63.96,196.081,115.512,255.554
		c118.195,136.362,239.078-35.353,389.51,67.676c150.432,103.03-77.249,1061.379-234.4,1066.751l-1939.939-4
		c0,0-419.98-172.967-162.727-438.513c151.117-155.988,48.267-235.515,29.549-297.978c-21.49-71.717-71.634-196.969,146.85-288.887
		c218.485-91.919,162.073-291.917,156.7-333.331C551.317,451.878,480.138,195.85,863.601,170.834L863.601,170.834z"/>
	<path style="fill:#96D9C9;" d="M1433.84,1857.037c-37.106-48.108-240.581-305.85-373.254-348.8
		c-146.449-47.409-8.422,140.89-8.422,140.89s-259.796-284.078-355.132-258.469c-87.391,23.476,0,199.561,0,199.561
		s-103.585-133.966-192.503-83.748c-60.667,34.262-12.567,282.262,66.517,350.566H1433.84z"/>
	<g>
		<g>
			<path style="fill:#3C8F7C;" d="M2307.869,1299.699c57.176-91.879,67.845-202.828,66.727-279.723
				c-1.213-83.477-16.193-145.98-16.344-146.602l4.137-1.498c0.151,0.626,15.25,63.586,16.484,147.618
				c1.143,77.651-9.648,189.74-67.532,282.758L2307.869,1299.699z"/>
		</g>
		<g>
			<path style="fill:#3C8F7C;" d="M2344.173,858.105c1.405,18.89,9.536,34.732,21.243,44.457
				c10.005-13.152,15.619-31.167,14.213-50.057c-1.404-18.89-9.536-34.733-21.242-44.458
				C2348.381,821.202,2342.768,839.215,2344.173,858.105z"/>
		</g>
		<g>
			<path style="fill:#3C8F7C;" d="M2382.816,901.711c-9.699,16.347-12.706,34.958-9.6,51.113
				c14.854-3.643,29.229-14.332,38.928-30.68c9.699-16.347,12.707-34.958,9.6-51.112
				C2406.892,874.674,2392.516,885.363,2382.816,901.711z"/>
		</g>
		<g>
			<path style="fill:#3C8F7C;" d="M2404.709,953.023c-15.061,10.084-25.271,25.641-29.197,42.044
				c14.314,4.191,31.1,1.673,46.162-8.411c15.063-10.084,25.271-25.64,29.197-42.044
				C2436.557,940.423,2419.771,942.939,2404.709,953.023z"/>
		</g>
		<g>
			<path style="fill:#3C8F7C;" d="M2397.958,1024.482c-11.925,8.009-19.315,21.701-21.331,36.842
				c12.426,5.44,26.406,4.777,38.33-3.232c11.926-8.009,19.316-21.701,21.332-36.842
				C2423.864,1015.81,2409.883,1016.473,2397.958,1024.482z"/>
		</g>
		<g>
			<path style="fill:#3C8F7C;" d="M2348.684,939.816c-13.406-7.372-28.41-7.782-41.252-2.46
				c3.393,14.25,12.414,27.052,25.818,34.423c13.404,7.372,28.409,7.782,41.252,2.46
				C2371.109,959.989,2362.088,947.188,2348.684,939.816z"/>
		</g>
		<g>
			<path style="fill:#3C8F7C;" d="M2350.168,989.168c-13.406-7.372-28.41-7.782-41.252-2.46
				c3.392,14.25,12.414,27.052,25.818,34.423c13.404,7.372,28.408,7.783,41.252,2.46
				C2372.594,1009.341,2363.573,996.54,2350.168,989.168z"/>
		</g>
	</g>
	<g>
		<g>
			<path style="fill:#96D9C9;" d="M2326.049,1720.367c126.669-45.964,215.27-155.597,267.29-239.473
				c56.475-91.055,83.247-172.278,83.512-173.089l5.597,2.221c-0.265,0.816-27.222,82.643-84.058,174.316
				c-52.52,84.712-142.043,195.46-270.281,241.995L2326.049,1720.367z"/>
		</g>
		<g>
			<path style="fill:#96D9C9;" d="M2671.903,1278.302c-11.534,21.652-13.541,46.261-7.369,67.592
				c20.141-4.893,38.804-19.094,50.338-40.747c11.533-21.653,13.541-46.261,7.368-67.593
				C2702.101,1242.447,2683.437,1256.648,2671.903,1278.302z"/>
		</g>
		<g>
			<path style="fill:#96D9C9;" d="M2684.309,1361.11c-22.015,8.617-38.219,25.878-45.982,46.163
				c18.898,9.849,42.15,11.664,64.165,3.046c22.014-8.617,38.219-25.878,45.982-46.163
				C2729.575,1354.308,2706.323,1352.492,2684.309,1361.11z"/>
		</g>
		<g>
			<path style="fill:#96D9C9;" d="M2672.908,1436.69c-23.589-3.103-45.618,4.189-61.308,18.22
				c12.879,17.789,33.129,30.642,56.718,33.744s45.618-4.189,61.308-18.221C2716.747,1452.646,2696.497,1439.793,2672.908,1436.69z"
				/>
		</g>
		<g>
			<path style="fill:#96D9C9;" d="M2628.251,1509.103c-23.589-3.103-45.618,4.189-61.308,18.221
				c12.879,17.788,33.129,30.641,56.718,33.743c23.589,3.103,45.618-4.189,61.308-18.22
				C2672.09,1525.058,2651.84,1512.205,2628.251,1509.103z"/>
		</g>
		<g>
			<path style="fill:#96D9C9;" d="M2631.821,1396.321c-1.283-22.864-10.852-43.503-24.928-57.586
				c-12.523,13.609-19.793,33.95-18.511,56.815c1.282,22.864,10.852,43.505,24.928,57.587
				C2625.834,1439.527,2633.104,1419.187,2631.821,1396.321z"/>
		</g>
		<g>
			<path style="fill:#96D9C9;" d="M2585.188,1471.271c-0.945-22.876-10.213-43.685-24.086-58.025
				c-12.729,13.364-20.3,33.555-19.354,56.43c0.945,22.876,10.213,43.685,24.086,58.025
				C2578.562,1514.337,2586.134,1494.146,2585.188,1471.271z"/>
		</g>
		<g>
			<path style="fill:#96D9C9;" d="M2552.093,1583.984c-8.996-4.737-18.89-4.885-27.232-1.281c2.552,9.339,8.779,17.68,17.774,22.415
				c8.995,4.736,18.89,4.884,27.231,1.28C2567.315,1597.059,2561.087,1588.719,2552.093,1583.984z"/>
		</g>
	</g>
	<g>
		<g>
			<path style="fill:#96D9C9;" d="M635.119,1854.03c-126.669-45.964-215.269-155.597-267.29-239.473
				c-56.475-91.055-83.247-172.278-83.512-173.089l-5.597,2.221c0.265,0.815,27.222,82.643,84.058,174.315
				c52.52,84.712,142.043,195.46,270.281,241.995L635.119,1854.03z"/>
		</g>
		<g>
			<path style="fill:#96D9C9;" d="M289.265,1411.965c11.534,21.652,13.541,46.261,7.369,67.592
				c-20.141-4.893-38.804-19.094-50.338-40.747c-11.533-21.653-13.541-46.261-7.368-67.593
				C259.067,1376.11,277.731,1390.312,289.265,1411.965z"/>
		</g>
		<g>
			<path style="fill:#96D9C9;" d="M276.859,1494.773c22.015,8.617,38.219,25.878,45.982,46.163
				c-18.898,9.849-42.15,11.664-64.165,3.046c-22.014-8.617-38.219-25.878-45.982-46.163
				C231.593,1487.971,254.845,1486.155,276.859,1494.773z"/>
		</g>
		<g>
			<path style="fill:#96D9C9;" d="M288.26,1570.354c23.589-3.103,45.618,4.189,61.307,18.22
				c-12.878,17.789-33.128,30.642-56.717,33.745c-23.589,3.102-45.618-4.19-61.308-18.222
				C244.421,1586.309,264.671,1573.456,288.26,1570.354z"/>
		</g>
		<g>
			<path style="fill:#96D9C9;" d="M332.917,1642.766c23.589-3.103,45.618,4.189,61.308,18.221
				c-12.879,17.789-33.129,30.641-56.718,33.743c-23.589,3.103-45.618-4.189-61.308-18.22
				C289.078,1658.721,309.328,1645.868,332.917,1642.766z"/>
		</g>
		<g>
			<path style="fill:#96D9C9;" d="M329.347,1529.984c1.283-22.864,10.852-43.504,24.928-57.586
				c12.523,13.609,19.792,33.95,18.511,56.815c-1.282,22.864-10.852,43.505-24.928,57.587
				C335.334,1573.19,328.064,1552.85,329.347,1529.984z"/>
		</g>
		<g>
			<path style="fill:#96D9C9;" d="M375.979,1604.934c0.945-22.876,10.213-43.684,24.086-58.025
				c12.729,13.364,20.3,33.555,19.354,56.43c-0.945,22.876-10.213,43.685-24.086,58.026
				C382.606,1648,375.034,1627.809,375.979,1604.934z"/>
		</g>
		<g>
			<path style="fill:#96D9C9;" d="M409.075,1717.646c8.996-4.736,18.89-4.884,27.232-1.28c-2.552,9.339-8.779,17.68-17.774,22.415
				c-8.995,4.736-18.89,4.884-27.232,1.28C393.853,1730.723,400.081,1722.382,409.075,1717.646z"/>
		</g>
	</g>
	<path style="fill:#3C8F7C;" d="M1905.965,1854.766c0,0,68.154-424.156,101.074-470.369
		c45.494-63.865,102.065,132.11,104.824,114.886c26.057-162.669,20.604-367.833,142.465-398.923
		c69.275-17.674-4.578,153.225,4.023,197.258c8.604,44.033,123.841-113.174,194.814-196.347
		c70.973-83.174,114.431-37.284,73.289,63.619c-39.782,97.57-183.898,211.898-151.637,221.684
		c32.26,9.786,213.155-126.135,240.418-76.043c33.428,61.42-245.236,169.833-217.277,182.063
		c27.959,12.231,160.709-45.27,160.709,3.656s-183.436,61.151-178.666,82.306c7.727,34.255,122.953-53.442,131.953-5.916
		c9.204,48.611-156.422,52.298-150.637,90.318c3.324,21.851,45.04-1.02,52.586,29.018
		c17.205,68.496-243.787,164.477-243.787,164.477L1905.965,1854.766z"/>
	<g>
		<path style="fill:#50BFA5;" d="M2114.762,1854.766c0,0,101.404-161.828,151.049-192.938
			c52.898-33.148,13.933,63.921,13.933,63.921s106.93-132.04,137.792-106.168c30.863,25.872,3.844,56.974,3.844,56.974
			s97.592-30.858,115.882,4.836c28.106,54.85-132.603,103.679-132.603,103.679s69.334-1.994,57.254,35.602
			C2443.695,1877.367,2114.762,1854.766,2114.762,1854.766z"/>
		<path style="fill:#96D9C9;" d="M2537.261,1681.39c-18.29-35.694-115.882-4.836-115.882-4.836s27.02-31.102-3.842-56.974
			c-30.864-25.872-116.856,54.814-116.856,54.814s7.979-65.395-56.813-6.736c-46.279,41.896-129.105,187.107-129.105,187.107
			L2537.261,1681.39z"/>
	</g>
	<g>
		<g>
			<g>
				<path style="fill:#50BFA5;" d="M2072.591,1504.738l-4.896-2.861c75.683-134.3,90.805-288.474,90.163-394.163
					c-0.696-114.694-19.589-198.645-19.78-199.479l5.669-2.089c0.192,0.84,19.224,85.352,19.94,200.729
					C2164.35,1213.46,2149.082,1369.005,2072.591,1504.738z"/>
			</g>
			<g>
				<path style="fill:#50BFA5;" d="M2119.99,889.42c1.633,25.792,12.078,46.475,27.256,58.253
					c13.202-19.457,20.721-45,19.088-70.793c-1.633-25.791-12.08-46.474-27.258-58.252
					C2125.875,838.085,2118.355,863.629,2119.99,889.42z"/>
			</g>
			<g>
				<path style="fill:#50BFA5;" d="M2169.971,944.127c-12.836,23.809-16.96,49.818-13.077,71.616
					c19.43-7.037,38.31-23.701,51.144-47.511c12.836-23.809,16.96-49.817,13.076-71.616
					C2201.686,903.653,2182.805,920.318,2169.971,944.127z"/>
			</g>
			<g>
				<path style="fill:#50BFA5;" d="M2198.002,1011.721c-19.768,15.926-33.261,38.716-38.563,61.815
					c18.643,3.812,40.58-1.941,60.35-17.867c19.77-15.926,33.264-38.716,38.563-61.815
					C2239.71,990.042,2217.771,995.795,2198.002,1011.721z"/>
			</g>
			<g>
				<path style="fill:#50BFA5;" d="M2179.412,1134.49c-8.684,6.049-14.961,15.21-17.839,24.782
					c7.638,2.246,16.927,0.566,25.612-5.482c8.684-6.049,14.961-15.21,17.84-24.781
					C2197.387,1126.763,2188.097,1128.442,2179.412,1134.49z"/>
			</g>
			<g>
				<path style="fill:#50BFA5;" d="M2175.201,1179.782c-8.686,6.049-14.961,15.21-17.841,24.781
					c7.64,2.246,16.928,0.566,25.612-5.481c8.686-6.049,14.961-15.21,17.84-24.782
					C2193.174,1172.054,2183.885,1173.734,2175.201,1179.782z"/>
			</g>
			<g>
				<path style="fill:#50BFA5;" d="M2125.006,1001.198c-17.42-8.31-37.002-6.829-53.824,2.245
					c4.276,19.139,15.918,35.516,33.338,43.826s37.002,6.828,53.822-2.244C2154.066,1025.887,2142.426,1009.509,2125.006,1001.198z"
					/>
			</g>
			<g>
				<path style="fill:#50BFA5;" d="M2126.418,1068.879c-17.421-8.311-37.002-6.828-53.824,2.245
					c4.277,19.139,15.916,35.516,33.338,43.826c17.42,8.311,37.002,6.829,53.822-2.245
					C2155.478,1093.568,2143.837,1077.189,2126.418,1068.879z"/>
			</g>
			<g>
				<path style="fill:#50BFA5;" d="M2136.545,1165.175c-11.338-5.409-24.083-4.445-35.031,1.46
					c2.783,12.457,10.359,23.117,21.697,28.526c11.34,5.409,24.084,4.444,35.033-1.462
					C2155.461,1181.243,2147.885,1170.584,2136.545,1165.175z"/>
			</g>
		</g>
	</g>
	<path style="fill:#FED333;" d="M684.819,354.09l-5.442-19.47l-19.125-6.555c-2.178-0.746-2.555-3.667-0.637-4.941l16.835-11.192
		l0.324-20.214c0.037-2.303,2.698-3.564,4.503-2.133l15.848,12.552l19.324-5.938c2.201-0.676,4.222,1.465,3.42,3.623l-7.041,18.951
		l11.62,16.543c1.323,1.885-0.088,4.469-2.388,4.373l-20.2-0.841l-12.143,16.163C688.333,356.852,685.439,356.308,684.819,354.09z"
		/>
	<polygon style="fill:#50BFA5;" points="482.218,441.999 475.557,454.074 454.944,445.503 443.028,461.958 426.553,458.065 
		424.583,466.405 446.617,471.611 457.91,456.018 479.354,464.934 489.377,446.763 	"/>
	<g>
		<path style="fill:#FED333;" d="M2477.436,552.012l-14.438,16.1l5.077,21.019c0.411,1.698-1.306,3.13-2.902,2.423l-19.772-8.756
			l-18.422,11.325c-1.488,0.914-3.379-0.274-3.201-2.013l2.217-21.511l-16.462-14.021c-1.331-1.133-0.784-3.299,0.923-3.666
			l21.145-4.538l8.246-19.99c0.667-1.615,2.896-1.765,3.771-0.254l10.852,18.706l21.559,1.666
			C2477.77,548.638,2478.602,550.711,2477.436,552.012z"/>
	</g>
	<g>
		<polygon style="fill:#F7CC7F;" points="2275.193,279.942 2237.819,284.291 2243.063,308.789 2231.322,311.301 2223.318,273.893 
			2260.469,269.569 2253.816,240.855 2287.671,236.296 2284.892,205.85 2296.846,204.758 2300.672,246.659 2268.488,250.992 		"/>
	</g>
	<g>
		<polygon style="fill:#F47458;" points="2551.932,811.245 2517.605,795.837 2509.559,819.562 2498.189,815.706 2510.477,779.477 
			2544.598,794.795 2553.594,766.726 2585.004,780.151 2598.213,752.578 2609.039,757.765 2590.863,795.711 2561.002,782.948 		"/>
	</g>
	<path style="fill:#07345A;" d="M2165.408,542.981l11.875-19.289l-9.536-3.867c-2.087-0.847-3.093-3.225-2.247-5.312l0,0
		c0.847-2.088,3.225-3.094,5.312-2.247l10.998,4.461l10.618-17.323l-10.187-4.131c-2.087-0.846-3.093-3.224-2.247-5.311l0,0
		c0.847-2.086,3.225-3.092,5.312-2.246l11.647,4.724l12.332-19.837c1.047-1.686,3.156-2.372,4.996-1.626l1.777,0.721
		c2.334,0.947,3.26,3.762,1.945,5.909l-11.469,18.719l16.889,6.849l12.33-19.837c1.049-1.686,3.156-2.372,4.996-1.626l1.94,0.787
		c2.333,0.946,3.261,3.761,1.944,5.908l-11.469,18.719l9.537,3.867c2.088,0.847,3.093,3.225,2.246,5.312l0,0
		c-0.846,2.087-3.224,3.093-5.311,2.246l-10.998-4.46l-10.455,17.389l10.186,4.131c2.087,0.846,3.093,3.224,2.246,5.311l0,0
		c-0.846,2.087-3.225,3.093-5.311,2.247l-11.648-4.724l-12.595,20.457c-1.044,1.695-3.159,2.39-5.005,1.641l-2.08-0.843
		c-2.337-0.948-3.262-3.769-1.939-5.917l11.877-19.289l-16.889-6.849l-12.596,20.457c-1.043,1.695-3.16,2.39-5.005,1.642
		l-2.079-0.844C2165.01,547.95,2164.086,545.129,2165.408,542.981z M2208.441,527.527l10.617-17.323l-16.887-6.848l-10.619,17.322
		L2208.441,527.527z"/>
	<path style="fill:#F48C7F;" d="M974.239,1302.238c-3.752-2.543-8.894-1.571-11.76,1.94c-2.227,2.729-4.772,6.365-5.864,9.82
		c-2.467,7.806-0.436,19.325,3.079,21.676c3.515,2.351,13.144-21.419,16.191-28.044
		C977.028,1305.146,975.987,1303.423,974.239,1302.238z"/>
	<path style="fill:#07345A;" d="M914.192,298.429l1124.94-2.025c20.154-0.036,36.52,16.271,36.557,36.424l2.677,1485.888
		c0.036,20.153-16.272,36.52-36.425,36.556L917,1857.297c-20.153,0.036-36.519-16.271-36.556-36.424l-2.677-1485.889
		C877.732,314.832,894.039,298.466,914.192,298.429z"/>
	
		<rect x="941.451" y="340.907" transform="matrix(1 -0.0018 0.0018 1 -1.93 2.6647)" style="fill:#F5FFFF;" width="1073.217" height="1463.276"/>
	<path style="fill:#86B1F2;" d="M1709.292,276.327c-0.011-6.582-5.356-11.907-11.938-11.895l-450.622,0.811
		c-6.581,0.012-11.907,5.357-11.896,11.939l0.085,46.836l474.455-0.855L1709.292,276.327z"/>
	<path style="fill:#86B1F2;" d="M1471.941,207.892c-39.25,0.071-71.01,31.946-70.94,71.196c0.071,39.249,31.946,71.01,71.196,70.939
		c39.249-0.07,71.01-31.946,70.94-71.196C1543.066,239.582,1511.191,207.821,1471.941,207.892z M1472.15,324.537
		c-25.171,0.045-45.613-20.324-45.658-45.495c-0.045-25.172,20.324-45.614,45.494-45.659c25.172-0.046,45.615,20.323,45.659,45.494
		C1517.691,304.049,1497.322,324.491,1472.15,324.537z"/>
	<g>
		<path style="fill:#9BC1F9;" d="M1701.995,265.359c4.279,1.802,7.288,6.031,7.297,10.968l0.085,46.835l-474.455,0.855
			c0.059,32.448,26.411,58.705,58.859,58.646l356.95-0.642c32.448-0.059,58.705-26.411,58.646-58.859l-0.085-46.835
			C1709.283,271.391,1706.275,267.161,1701.995,265.359z"/>
		<path style="fill:#9BC1F9;" d="M1246.732,265.243L1246.732,265.243c-4.113,0.007-7.736,2.098-9.872,5.271
			C1238.996,267.341,1242.619,265.25,1246.732,265.243z"/>
		<path style="fill:#9BC1F9;" d="M1235.367,273.637c0.23-0.747,0.533-1.462,0.898-2.139
			C1235.9,272.175,1235.598,272.89,1235.367,273.637z"/>
	</g>
	<g>
		<path style="fill:#184655;" d="M1934.957,1286.554l-152.564,0.274l-0.273-152.563l152.563-0.274L1934.957,1286.554z
			 M1788.617,1280.582l140.093-0.253l-0.253-140.091l-140.091,0.252L1788.617,1280.582z"/>
	</g>
	<g>
		<path style="fill:#184655;" d="M1935.414,1540.409l-152.564,0.275l-0.274-152.563l152.563-0.274L1935.414,1540.409z
			 M1789.074,1534.438l140.094-0.252l-0.252-140.092l-140.094,0.252L1789.074,1534.438z"/>
	</g>
	
		<rect x="1425.599" y="623.266" transform="matrix(-1 -0.0018 0.0018 -1 3360.0803 1271.5146)" style="opacity:0.3;fill:#9BC1F9;" width="510.027" height="21.959"/>
	
		<rect x="1425.487" y="685.451" transform="matrix(-1 -0.0018 0.0018 -1 3359.7434 1395.8868)" style="opacity:0.3;fill:#9BC1F9;" width="510.027" height="21.959"/>
	
		<rect x="1425.375" y="747.635" transform="matrix(-1 -0.0018 0.0018 -1 3359.408 1520.2548)" style="opacity:0.3;fill:#9BC1F9;" width="510.028" height="21.958"/>
	
		<rect x="1032.412" y="885.437" transform="matrix(-1 -0.0018 0.0018 -1 2965.9487 1795.5042)" style="opacity:0.3;fill:#9BC1F9;" width="902.742" height="21.959"/>
	
		<rect x="1032.3" y="947.622" transform="matrix(-1 -0.0018 0.0018 -1 2965.6116 1919.8744)" style="opacity:0.3;fill:#9BC1F9;" width="902.742" height="21.958"/>
	
		<rect x="1032.188" y="1009.806" transform="matrix(-1 -0.0018 0.0018 -1 2965.2769 2044.2401)" style="opacity:0.3;fill:#9BC1F9;" width="902.742" height="21.959"/>
	
		<rect x="1032.907" y="1133.987" transform="matrix(-1 -0.0018 0.0018 -1 2754.5469 2292.415)" style="opacity:0.3;fill:#9BC1F9;" width="690.799" height="21.959"/>
	
		<rect x="1032.795" y="1196.171" transform="matrix(-1 -0.0018 0.0018 -1 2754.2131 2416.7808)" style="opacity:0.3;fill:#9BC1F9;" width="690.799" height="21.959"/>
	
		<rect x="1032.683" y="1258.356" transform="matrix(-1 -0.0018 0.0018 -1 2753.8752 2541.1516)" style="opacity:0.3;fill:#9BC1F9;" width="690.799" height="21.958"/>
	
		<rect x="1032.459" y="1382.725" transform="matrix(-1 -0.0018 0.0018 -1 2753.2051 2789.8867)" style="opacity:0.3;fill:#9BC1F9;" width="690.799" height="21.958"/>
	
		<rect x="1032.347" y="1444.909" transform="matrix(-1 -0.0018 0.0018 -1 2752.8689 2914.2551)" style="opacity:0.3;fill:#9BC1F9;" width="690.8" height="21.958"/>
	
		<rect x="1032.235" y="1507.093" transform="matrix(-1 -0.0018 0.0018 -1 2752.5332 3038.623)" style="opacity:0.3;fill:#9BC1F9;" width="690.799" height="21.959"/>
	
		<rect x="1031.945" y="1668.053" transform="matrix(-1 -0.0018 0.0018 -1 2962.6638 3360.7332)" style="opacity:0.3;fill:#9BC1F9;" width="901.8" height="21.959"/>
	
		<rect x="1031.849" y="1721.264" transform="matrix(-1 -0.0018 0.0018 -1 2962.3752 3467.1545)" style="opacity:0.3;fill:#9BC1F9;" width="901.799" height="21.959"/>
	<g>
		<polygon style="fill:#F47458;" points="1857.921,1261.616 1810.542,1180.331 1827.495,1170.449 1854.996,1217.63 
			1899.891,1109.93 1918.004,1117.479 		"/>
	</g>
	<g>
		<polygon style="fill:#F47458;" points="1858.385,1518.798 1811.006,1437.513 1827.958,1427.631 1855.459,1474.812 
			1900.354,1367.111 1918.467,1374.661 		"/>
	</g>
	<g>
		<path style="opacity:0.3;fill:#9BC1F9;" d="M1906.954,1314.277c37.973,0.068,74.778,7.622,108.747,21.94l-0.064,35.765
			c-32.852-16.117-69.752-25.211-108.74-25.281c-137.154-0.247-248.939,111.136-249.186,248.29
			c-0.158,87.876,45.51,165.337,114.419,209.721l-53.552-0.097c-3.846-3.462-7.619-7.029-11.299-10.723
			c-53.01-53.2-82.129-123.858-81.992-198.96c0.134-75.103,29.507-145.654,82.707-198.663S1831.854,1314.142,1906.954,1314.277z"/>
		<path style="opacity:0.3;fill:#9BC1F9;" d="M1906.816,1390.501c39.939,0.072,77.219,11.635,108.729,31.531l-0.035,19.47
			c-30.726-21.834-68.242-34.715-108.723-34.788c-104.063-0.188-188.877,84.322-189.064,188.385
			c-0.188,104.063,84.322,188.878,188.385,189.065c40.479,0.072,78.043-12.674,108.848-34.396l-0.035,19.47
			c-31.582,19.782-68.902,31.211-108.842,31.139c-113.003-0.203-204.771-92.303-204.567-205.307
			C1701.715,1482.066,1793.813,1390.298,1906.816,1390.501z"/>
	</g>
	<g>
		<path style="fill:#13375B;" d="M1191.781,493.124v20.774h-6.44v-54.963h15.102c5.877,0,10.432,1.433,13.665,4.293
			c3.232,2.861,4.848,6.898,4.848,12.111c0,5.214-1.796,9.48-5.385,12.802c-3.591,3.322-8.439,4.982-14.546,4.982H1191.781z
			 M1191.781,464.762v22.537h6.745c4.446,0,7.839-1.015,10.177-3.048c2.338-2.031,3.507-4.9,3.507-8.604
			c0-7.257-4.293-10.885-12.878-10.885H1191.781z"/>
		<path style="fill:#13375B;" d="M1276.32,513.898h-7.666l-9.198-15.407c-0.844-1.432-1.661-2.651-2.453-3.661
			c-0.792-1.009-1.604-1.833-2.434-2.473c-0.831-0.638-1.725-1.104-2.684-1.398c-0.958-0.293-2.038-0.441-3.238-0.441h-5.29v23.38
			h-6.439v-54.963h16.405c2.401,0,4.619,0.301,6.649,0.901c2.032,0.601,3.795,1.513,5.29,2.74c1.495,1.227,2.665,2.754,3.507,4.58
			c0.843,1.827,1.264,3.967,1.264,6.42c0,1.917-0.287,3.672-0.862,5.27c-0.575,1.597-1.393,3.022-2.453,4.273
			c-1.06,1.252-2.338,2.318-3.833,3.2c-1.494,0.881-3.175,1.565-5.04,2.051v0.153c0.92,0.409,1.718,0.876,2.396,1.399
			c0.677,0.524,1.322,1.143,1.936,1.858c0.613,0.716,1.219,1.527,1.82,2.434c0.601,0.908,1.271,1.962,2.013,3.162L1276.32,513.898z
			 M1243.357,464.762v19.931h8.738c1.61,0,3.099-0.242,4.466-0.729c1.367-0.484,2.548-1.182,3.545-2.089
			c0.996-0.907,1.775-2.018,2.337-3.334c0.562-1.316,0.843-2.791,0.843-4.428c0-2.938-0.951-5.232-2.855-6.88
			c-1.904-1.647-4.657-2.472-8.259-2.472H1243.357z"/>
		<path style="fill:#13375B;" d="M1320.614,513.898h-29.13v-54.963h27.903v5.826h-21.463v18.283h19.854v5.786h-19.854v19.242h22.69
			V513.898z"/>
		<path style="fill:#13375B;" d="M1336.239,511.676v-7.59c0.868,0.767,1.91,1.456,3.124,2.07c1.213,0.613,2.491,1.131,3.832,1.552
			c1.342,0.423,2.69,0.748,4.045,0.977c1.353,0.23,2.605,0.346,3.755,0.346c3.96,0,6.917-0.734,8.872-2.204
			c1.956-1.469,2.933-3.584,2.933-6.344c0-1.482-0.326-2.771-0.978-3.871c-0.652-1.098-1.553-2.102-2.703-3.009
			c-1.149-0.907-2.51-1.775-4.082-2.606c-1.571-0.83-3.264-1.705-5.078-2.625c-1.916-0.971-3.705-1.955-5.366-2.951
			c-1.661-0.997-3.104-2.095-4.33-3.297c-1.228-1.2-2.192-2.561-2.895-4.082c-0.703-1.52-1.054-3.302-1.054-5.347
			c0-2.504,0.55-4.682,1.648-6.534c1.098-1.853,2.543-3.379,4.331-4.581c1.789-1.201,3.827-2.095,6.114-2.683
			c2.286-0.587,4.618-0.882,6.994-0.882c5.417,0,9.365,0.651,11.844,1.955v7.244c-3.246-2.248-7.411-3.373-12.495-3.373
			c-1.407,0-2.811,0.147-4.216,0.44c-1.406,0.294-2.658,0.773-3.757,1.438c-1.099,0.665-1.993,1.521-2.683,2.568
			c-0.69,1.048-1.035,2.325-1.035,3.832c0,1.406,0.262,2.62,0.786,3.642c0.523,1.023,1.296,1.955,2.318,2.799
			c1.022,0.843,2.268,1.661,3.737,2.452c1.469,0.792,3.163,1.661,5.08,2.607c1.967,0.97,3.832,1.993,5.595,3.066
			c1.764,1.073,3.31,2.262,4.639,3.565c1.327,1.303,2.382,2.747,3.162,4.331c0.779,1.585,1.167,3.398,1.167,5.443
			c0,2.708-0.53,5.001-1.589,6.88c-1.062,1.878-2.491,3.404-4.293,4.58c-1.8,1.175-3.877,2.024-6.229,2.548
			c-2.351,0.523-4.829,0.786-7.434,0.786c-0.871,0-1.943-0.07-3.221-0.211c-1.277-0.141-2.581-0.345-3.909-0.613
			c-1.329-0.268-2.586-0.6-3.775-0.996C1337.907,512.602,1336.953,512.161,1336.239,511.676z"/>
		<path style="fill:#13375B;" d="M1425.531,511.599c-4.063,2.147-9.122,3.22-15.178,3.22c-7.82,0-14.08-2.517-18.781-7.55
			c-4.703-5.034-7.052-11.64-7.052-19.816c0-8.79,2.645-15.893,7.934-21.31c5.29-5.417,11.998-8.126,20.122-8.126
			c5.213,0,9.531,0.755,12.956,2.262v6.86c-3.937-2.197-8.279-3.296-13.033-3.296c-6.311,0-11.428,2.108-15.35,6.324
			c-3.923,4.216-5.883,9.851-5.883,16.902c0,6.695,1.833,12.029,5.499,16.003c3.666,3.973,8.478,5.96,14.431,5.96
			c5.519,0,10.297-1.227,14.335-3.681V511.599z"/>
		<path style="fill:#13375B;" d="M1483.738,513.898h-7.666l-9.199-15.407c-0.842-1.432-1.661-2.651-2.452-3.661
			c-0.793-1.009-1.604-1.833-2.435-2.473c-0.83-0.638-1.725-1.104-2.683-1.398c-0.959-0.293-2.038-0.441-3.239-0.441h-5.289v23.38
			h-6.439v-54.963h16.405c2.401,0,4.618,0.301,6.649,0.901c2.031,0.601,3.795,1.513,5.289,2.74c1.495,1.227,2.664,2.754,3.508,4.58
			c0.844,1.827,1.266,3.967,1.266,6.42c0,1.917-0.289,3.672-0.863,5.27c-0.574,1.597-1.393,3.022-2.453,4.273
			c-1.061,1.252-2.338,2.318-3.833,3.2c-1.495,0.881-3.175,1.565-5.04,2.051v0.153c0.92,0.409,1.719,0.876,2.396,1.399
			c0.677,0.524,1.321,1.143,1.936,1.858c0.612,0.716,1.22,1.527,1.821,2.434c0.6,0.908,1.271,1.962,2.012,3.162L1483.738,513.898z
			 M1450.775,464.762v19.931h8.738c1.61,0,3.1-0.242,4.466-0.729c1.368-0.484,2.55-1.182,3.545-2.089
			c0.997-0.907,1.776-2.018,2.339-3.334c0.562-1.316,0.844-2.791,0.844-4.428c0-2.938-0.953-5.232-2.856-6.88
			c-1.904-1.647-4.657-2.472-8.261-2.472H1450.775z"/>
		<path style="fill:#13375B;" d="M1510.707,458.935v5.52h-5.365v43.924h5.365v5.519h-17.17v-5.519h5.365v-43.924h-5.365v-5.52
			H1510.707z"/>
		<path style="fill:#13375B;" d="M1533.845,493.124v20.774h-6.438v-54.963h15.102c5.877,0,10.432,1.433,13.663,4.293
			c3.233,2.861,4.849,6.898,4.849,12.111c0,5.214-1.795,9.48-5.385,12.802c-3.591,3.322-8.439,4.982-14.545,4.982H1533.845z
			 M1533.845,464.762v22.537h6.746c4.446,0,7.838-1.015,10.177-3.048c2.337-2.031,3.506-4.9,3.506-8.604
			c0-7.257-4.293-10.885-12.878-10.885H1533.845z"/>
		<path style="fill:#13375B;" d="M1611.484,464.762h-15.867v49.137h-6.439v-49.137h-15.828v-5.826h38.135V464.762z"/>
		<path style="fill:#13375B;" d="M1639.527,458.935v5.52h-5.366v43.924h5.366v5.519h-17.17v-5.519h5.365v-43.924h-5.365v-5.52
			H1639.527z"/>
		<path style="fill:#13375B;" d="M1678.38,514.818c-7.794,0-14.035-2.567-18.724-7.703c-4.689-5.137-7.033-11.819-7.033-20.047
			c0-8.84,2.389-15.892,7.168-21.157c4.777-5.264,11.281-7.896,19.51-7.896c7.588,0,13.701,2.556,18.34,7.666
			c4.636,5.111,6.956,11.793,6.956,20.046c0,8.969-2.376,16.06-7.13,21.272C1692.715,512.212,1686.351,514.818,1678.38,514.818z
			 M1678.84,463.842c-5.775,0-10.465,2.083-14.066,6.247c-3.604,4.166-5.404,9.634-5.404,16.405c0,6.771,1.756,12.22,5.27,16.347
			c3.514,4.128,8.094,6.19,13.741,6.19c6.029,0,10.782-1.967,14.257-5.903c3.477-3.935,5.213-9.441,5.213-16.52
			c0-7.257-1.686-12.864-5.059-16.825C1689.418,465.822,1684.768,463.842,1678.84,463.842z"/>
		<path style="fill:#13375B;" d="M1767.326,513.898h-7.895l-28.287-43.81c-0.716-1.098-1.303-2.248-1.764-3.449h-0.229
			c0.203,1.176,0.306,3.692,0.306,7.551v39.708h-6.438v-54.963h8.354l27.521,43.119c1.148,1.789,1.891,3.016,2.223,3.68h0.153
			c-0.255-1.584-0.384-4.279-0.384-8.087v-38.712h6.439V513.898z"/>
	</g>
	<g>
		<path style="fill:#13375B;" d="M1178.918,807.86h-28.589l-34.307-57.465c-3.145-5.336-6.195-9.886-9.148-13.651
			c-2.956-3.764-5.982-6.837-9.078-9.22c-3.097-2.382-6.432-4.121-10.005-5.218c-3.574-1.095-7.601-1.643-12.08-1.643h-19.727
			v87.198h-24.015V602.873h61.181c8.957,0,17.225,1.122,24.801,3.36c7.577,2.24,14.152,5.646,19.727,10.221
			c5.575,4.573,9.935,10.269,13.08,17.082c3.144,6.815,4.717,14.795,4.717,23.943c0,7.147-1.073,13.7-3.216,19.655
			c-2.144,5.957-5.195,11.271-9.148,15.938c-3.956,4.671-8.719,8.648-14.294,11.936s-11.843,5.839-18.798,7.648v0.571
			c3.431,1.525,6.409,3.266,8.935,5.218c2.523,1.954,4.932,4.266,7.218,6.933c2.287,2.669,4.55,5.695,6.791,9.077
			c2.237,3.384,4.74,7.315,7.504,11.793L1178.918,807.86z M1055.984,624.602v74.332h32.592c6.004,0,11.554-0.904,16.653-2.715
			c5.097-1.81,9.506-4.408,13.223-7.791c3.717-3.382,6.623-7.527,8.72-12.436c2.095-4.907,3.145-10.411,3.145-16.51
			c0-10.959-3.551-19.513-10.649-25.66c-7.101-6.146-17.368-9.22-30.805-9.22H1055.984z"/>
		<path style="fill:#13375B;" d="M1376.993,807.86h-29.306l-47.171-78.478c-1.429-2.381-3.001-5.765-4.717-10.149h-0.572
			c-0.954,2.193-2.573,5.575-4.86,10.149l-48.601,78.478h-29.448l68.615-103.065l-63.182-101.922h29.447l41.883,72.046
			c2.764,4.767,5.193,9.53,7.291,14.294h0.571c3.049-6.289,5.719-11.243,8.005-14.866l43.599-71.474h27.587l-64.469,101.636
			L1376.993,807.86z"/>
	</g>
	<path style="fill:#F7CC7F;" d="M2502.706,1852H254.048c-3.766,0-6.819,3.582-6.819,8l0,0c0,4.418,3.053,8,6.819,8h2248.658
		c3.766,0,6.819-3.582,6.819-8l0,0C2509.525,1855.582,2506.472,1852,2502.706,1852z"/>
	<g>
		<g>
			<g>
				<g>
					<path style="fill:#FFFFFF;" d="M715.938,1782.591l-2.931,45.028c-1.079,15.066-14.167,26.406-29.234,25.328l-1.553-0.111
						c-15.067-1.078-26.407-14.166-25.329-29.233l2.932-45.027L715.938,1782.591z"/>
					<path style="fill:#F0F0F0;" d="M669.214,1848.444c3.769,2.468,8.193,4.048,13.006,4.392l1.552,0.111
						c15.067,1.079,28.156-10.262,29.234-25.328l2.932-45.027l-28.058-2.009l-2.932,45.027
						C684.216,1835.865,677.913,1844.383,669.214,1848.444z"/>
					<polygon style="fill:#F47458;" points="790.351,633.844 715.938,1782.591 659.823,1778.575 734.236,629.827 763.809,606.405 
											"/>
					<polygon style="fill:#E0E0E0;" points="762.293,631.836 687.88,1780.583 715.938,1782.591 790.351,633.844 					"/>
					<path style="fill:#FFFFFF;" d="M775.518,568.755l14.833,65.089c-4.803,17.796-21.571,19.996-32.17-2.589
						c-6.327-13.482-20.761,26.262-23.944-1.428l23.951-62.313L775.518,568.755z"/>
					<path style="fill:#B3B3B3;" d="M719.122,1774.614l-0.839,11.711c-0.083,1.164-1.094,2.04-2.258,1.956l-57.099-4.086
						c-1.164-0.084-2.04-1.095-1.957-2.259l0.838-11.711c0.083-1.164,1.094-2.04,2.258-1.956l57.099,4.086
						C718.329,1772.439,719.205,1773.45,719.122,1774.614z"/>
				</g>
				<path style="fill:#F47458;" d="M771.729,540.984l3.79,27.771c-4.216,4.971-9.994,4.558-17.331-1.24l7.706-26.948
					c0.389-1.359,1.677-2.26,3.087-2.159l0,0C770.391,538.508,771.538,539.583,771.729,540.984z"/>
			</g>
		</g>
		<g>
			<g>
				<path style="fill:#F7A491;" d="M374.868,1273.674c0,0-1.45-7.1-1.749-9.495c-0.351-2.813-0.752-11.313-0.752-11.313
					s-0.01-29.681,2.185-29.504c2.195,0.176,5.038,5.268,5.681,7.101c0.642,1.829,1.571,3.911,2.215,5.741
					c0.643,1.831,2.535,2.869,4.87,2.229c2.334-0.641,1.356-8.498,0.478-11.146c-2.74-8.256-14.507-28.841-15.659-31.074
					c-1.362-2.639,8.102-54.122,9.941-72.017h0.008c3.884-29.204,9.342-59.03,9.768-62.121l52.008-114.954l-34.717-35.454
					c0,0-59.511,126.766-61.763,133.443c-1.072,3.18-4.832,71.563-4.804,71.567c0.27,33.788,0.594,63.563,0.492,69.283
					c0,0-4.901,17.03-8.66,27.689c-3.761,10.661-2.939,21.981-3.535,25.139c-0.088,0.465-2.733,11.224-0.919,24.702
					c1.564,11.619,5.445-0.178,5.445-0.178s0.999-22.091,2.737-21.733c1.34,0.275,0.079,12.316,1.673,25.189
					c0.411,3.312,0.827,6.576,1.234,9.573c1.069,7.863,6.242,9.399,6.444,0.976c0.073-2.976,0.071-7.917-0.432-11.435
					c-0.544-3.8,0.195-7.479,0.229-10.748c0.071-6.492,0.039-11.226,0.308-11.079c0.348,0.189,1.277-1.099,1.822,2.399
					c0.656,4.205,0.055,13.475,1.504,19.581c0.819,3.462,2.09,10.807,2.09,10.807s3.371,11.668,4.083,11.638
					c3.858-0.163,3.85-9.228,2.114-13.777c0.398-3.48-1.158-11.167-1.158-11.167s0.37-16.29,2.69-16.299
					c1.907-0.011,8.597,39.083,12.455,38.646C376.347,1285.526,374.868,1273.674,374.868,1273.674z"/>
			</g>
			<path style="fill:#B75742;" d="M422.721,1013.708c0,0-21.58-3.731-33.036-7.993c-15.263-5.679-25.309-10.656-25.309-10.656
				s16.761-71.732,37.674-115.289c8.643-18.005,17.383-26.691,29.572-28.772c0.075-0.015,25.699,16.872,24.681,57.544
				C456.065,918.09,422.721,1013.708,422.721,1013.708z"/>
			<g>
				<path style="fill:#F7A491;" d="M489.088,1254.767l27.975,257.368c0,0-13.673,54.426-12.024,69.888
					c1.648,15.463,30.406,218.298,30.406,218.298l-1.213,11.379l-0.032,33.599h106.744c0,0-22.656-10.448-54.348-31.096
					c-2.344-1.526-7.744-6.397-9.058-16.104c-8.462-62.518,8.281-271.053,8.281-271.053l13.188-271.446L489.088,1254.767z"/>
				<path style="fill:#F7A491;" d="M403.304,1308.904c-6.027,1.57-15.307,222.861-20.299,232.67
					c-31.65,62.18-39.173,251.224-39.173,251.224l-9.197,26.918l-9.85,33.012c0,0,31.608,8.653,48.182-0.768l-1.839-32.543
					l-1.683-29.76l79.854-235.523l43.693-240.231L403.304,1308.904z"/>
				<path style="fill:#3259A1;" d="M562.117,880.236c-12.88-18.126-66.028-70.629-71.93-70.52
					c-17.212,0.309-73.708,0.332-84.751,6.107l0.065,12.364c0.295,55.281,7.355,110.336,21.259,163.84
					c9.693,37.294,18.877,77.116,17.745,91.419l0.269,0.268c32.688,32.494,84.24,29.94,114.136-5.652l0,0
					c0,0-0.13-39.64,4.474-75.801C570.595,945.614,594.116,925.259,562.117,880.236z"/>
				<path style="fill:#F7A491;" d="M472.868,753.452c0,0,1.488,36.874-1.729,50.854c-3.218,13.982-7.508,15.038,20.113,19.291
					c10.85,1.673,21.313,4.165,21.313,4.165s-2.835-20.53-3.262-29.195c-0.707-14.273,3.192-58.35,3.192-58.35L472.868,753.452z"/>
				<path style="fill:#F47458;" d="M493.902,771.801c5.684,3.162,10.992,5.028,15.887,5.804c0.939-17.41,2.706-37.388,2.706-37.388
					l-37.804,12.625C479.079,760.382,485.314,767.021,493.902,771.801z"/>
				<path style="fill:#F7A491;" d="M481.637,650.174c0,0-15.781,5.569-24.496,22.953c-8.713,17.38-11.966,66.238,22.375,85.348
					c16.997,9.458,36.607,11.254,45.836,2.934c9.417-8.49,8.27-27.349,7.327-43.033C530.81,687.316,523.979,640.297,481.637,650.174
					z"/>
				<path style="fill:#F7A491;" d="M456.333,711.507c1.949,8.156-0.653,16.029-5.811,17.584c-5.158,1.556-10.92-3.796-12.869-11.953
					c-1.949-8.159,0.652-16.029,5.811-17.585C448.622,697.997,454.384,703.352,456.333,711.507z"/>
				<path style="fill:#3259A1;" d="M371.12,1819.286c-14.578,6.683-30.177,2.556-36.488,0.423l-10.123,33.136
					c0,0,31.83,9.428,48.402,0.007L371.12,1819.286z"/>
				<path style="fill:#F47458;" d="M384.969,1440.332c0.013,0.035,0.026,0.033,0.037-0.004L384.969,1440.332z"/>
				<path style="fill:#3259A1;" d="M533.097,1853.642h110.97c4.104-0.381,5.104-3.834,3.681-5.962
					c-2.93-4.384-15.875-7.598-30.426-14.579c-25.524,2.77-79.082-15.368-83.11-21.467
					C531.887,1823.842,530.816,1853.12,533.097,1853.642z"/>
				<path style="fill:#F8A492;" d="M755.988,964.072c2.152-2.988,9.347-17.604,9.347-17.604s7.459-25.041,5.913-24.713
					c-0.919,0.194-3.988,3.74-7.631,11.319c-2.226,4.631-4.661,12.739-6.965,16.744c-4.042,7.026-8.562,9.963-7.441,7.25
					c0.817-1.978,3.585-3.606,6.021-7.817c5.932-10.25,11.173-27.011,8.891-26.671c-2.008,0.297-7.741,11.853-14.093,20.832
					c-2.771,3.921-10.633,8.829-15.569,11.938c0.06-2.217,0.664-4.439,1.002-5.496c0.629-1.958,9.441-13.65,5.994-15.122
					c-3.448-1.473-24.426,23.847-24.426,23.847l-8.617,14.68l-0.763,0.563l-0.03-0.002c0,0-104.657,41.033-108.167,39.922
					c-8.232-2.609-36.358-84.132-36.358-84.132l-58.556,10.558c-0.845-0.456,61.557,121.343,73.195,127.315
					c10.219,5.243,119.009-51.432,139.444-63.56c28.146-10.832,39.133-23.716,43.697-30.311
					c2.454-3.547,11.886-18.951,11.886-18.951s2.024-21.35,0.49-21.538c-5.162-0.633-6.59,19.489-6.59,19.489
					s-6.982,9.496-8.196,10.742C755.453,966.445,755.988,964.072,755.988,964.072z"/>
				<path style="fill:#B75742;" d="M466.743,858.58c-7.993,33.871,34.633,109.389,34.633,109.389s60.725-29.492,71.398-42.202
					c0,0-41.885-69.121-44.483-73.64c-5.606-9.751-25.28-29.904-38.537-26.203C481.312,828.279,466.743,858.58,466.743,858.58z"/>
				<path style="fill:#184655;" d="M476.395,775.056c4.538-31.078,56.077-94.395,36.174-120.852
					c-16.107-21.411-44.189-15.005-62.081-8.85c-81.142,27.914-76.479,129.915-102.093,145.866
					c-46.437,28.92-75.003,46.93-78.351,112.085c-3.972,77.273,61.659,116.74,140.582,97.832
					c42.437-10.166,53.685-24.052,70.702-64.125c7.672-18.065,23.145-74.411,18.909-101.943
					C496.444,810.422,472.74,800.086,476.395,775.056z"/>
				<path style="fill:#F7A491;" d="M507.237,718.096c0,9.2-3.34,16.658-7.459,16.658c-4.119,0-7.459-7.458-7.459-16.658
					c0-9.198,3.34-16.657,7.459-16.657C503.897,701.438,507.237,708.897,507.237,718.096z"/>
				<path style="fill:#3259A1;" d="M608.975,1422.18l3.797-152.685c0.657-43.152-7.884-85.919-25.007-125.216l-28.855-66.217
					c-11.673,3.821-22.675,7.076-34.942,8.495c-26.684,3.082-52.929,0.021-79.462-3.11c-0.082,1.034-0.203,1.939-0.365,2.697
					c-4.815,22.487-31.636,72.618-42.935,141.135c-12.825,77.778-17.621,194.104-16.017,203.229
					C507.814,1436.081,537.043,1440.504,608.975,1422.18z"/>
			</g>
		</g>
	</g>
</g>
</svg>
